<svg width="48" height="61" viewBox="0 0 48 61" fill="none" xmlns="http://www.w3.org/2000/svg">
<g id="&#240;&#159;&#166;&#134; icon &#34;finger print&#34;">
<path id="Vector" d="M2.52619 23.6104C2.22258 23.6135 1.92365 23.5259 1.65975 23.3565C1.46619 23.2338 1.29627 23.0688 1.15994 22.8711C1.0236 22.6734 0.923589 22.447 0.865751 22.2051C0.807913 21.9633 0.793411 21.7109 0.823093 21.4627C0.852775 21.2144 0.926045 20.9754 1.03862 20.7595C3.20809 16.6747 9.80879 7.14062 24.212 7.14062C30.4537 7.14062 35.928 8.99007 40.4752 12.6356C44.2177 15.6275 46.3152 19.0141 47.3144 20.6452C47.4411 20.8508 47.5301 21.0829 47.5761 21.3279C47.6221 21.5729 47.6242 21.8258 47.5823 22.0717C47.5404 22.3176 47.4552 22.5516 47.3319 22.7598C47.2086 22.968 47.0496 23.1463 46.8643 23.2842C46.4856 23.5666 46.0242 23.6716 45.5781 23.5768C45.1319 23.482 44.736 23.1949 44.4743 22.7765C42.666 19.843 37.1523 10.9169 24.212 10.9169C11.5811 10.9169 5.87043 19.1309 4.01039 22.6533C3.86094 22.9475 3.64458 23.1913 3.38366 23.3595C3.12273 23.5278 2.82672 23.6144 2.52619 23.6104Z" fill="black"/>
<path id="Vector_2" d="M18.0578 60.0589C17.8237 60.0594 17.5918 60.0068 17.376 59.9041C17.1603 59.8013 16.9651 59.6507 16.8021 59.461C12.6206 54.5106 10.2554 48.9749 9.36529 42.0532V42.0164C8.86568 37.434 9.5971 30.9464 13.181 26.4859C15.8265 23.1945 19.5454 21.5215 24.2152 21.5215C29.7379 21.5215 34.078 24.4181 36.7842 29.8852C38.7478 33.857 39.1371 37.8148 39.1472 37.9773C39.1678 38.2278 39.1444 38.4805 39.0783 38.7207C39.0122 38.961 38.9047 39.1843 38.7621 39.3776C38.6194 39.571 38.4443 39.7307 38.2468 39.8476C38.0494 39.9646 37.8334 40.0364 37.6113 40.059C37.1631 40.1139 36.7138 39.9678 36.3603 39.6521C36.0068 39.3365 35.7775 38.8767 35.722 38.3721C35.4256 35.9973 34.7443 33.7044 33.7123 31.6077C31.6148 27.4328 28.4236 25.3105 24.2028 25.3105C20.557 25.3105 17.7045 26.5481 15.7421 28.9916C12.9132 32.514 12.3663 37.9405 12.7545 41.5302C13.5343 47.651 15.6194 52.5202 19.3012 56.8716C19.4549 57.0519 19.5749 57.2652 19.654 57.4989C19.7331 57.7326 19.7697 57.9818 19.7618 58.2318C19.7538 58.4818 19.7013 58.7274 19.6075 58.954C19.5137 59.1807 19.3805 59.3838 19.2157 59.5512C18.8984 59.8756 18.4861 60.0564 18.0578 60.0589Z" fill="black"/>
<path id="Vector_3" d="M37.3212 54.6053C33.6641 54.6053 30.5551 53.4629 28.0671 51.1921C23.0688 46.6491 22.5084 39.25 22.4837 38.9378C22.4484 38.4252 22.5952 37.9179 22.8915 37.5274C23.1879 37.1368 23.6097 36.8951 24.0641 36.8554C24.5184 36.8157 24.9682 36.9812 25.3144 37.3155C25.6606 37.6499 25.8748 38.1257 25.91 38.6382C25.9224 38.7474 26.422 44.7996 30.2749 48.2853C32.5546 50.3391 35.6018 51.154 39.3567 50.678C39.8055 50.6166 40.2576 50.7581 40.6142 51.0716C40.9707 51.3851 41.2027 51.8451 41.2595 52.351C41.2841 52.6009 41.2643 52.8538 41.2013 53.095C41.1383 53.3362 41.0334 53.5609 40.8926 53.7558C40.7518 53.9508 40.578 54.1122 40.3814 54.2306C40.1847 54.349 39.9691 54.422 39.7472 54.4454C38.9419 54.5514 38.1319 54.6048 37.3212 54.6053Z" fill="black"/>
<path id="Vector_4" d="M40.2106 4.16219C38.7838 3.11498 33.7247 0 24.2119 0C14.2264 0 9.15494 3.4412 8.03307 4.31578C7.95897 4.36709 7.88961 4.42662 7.82602 4.49349C7.81931 4.50081 7.81057 4.5053 7.80127 4.50618C7.62212 4.68263 7.47837 4.90013 7.37961 5.14418C7.28085 5.38823 7.22934 5.65323 7.22852 5.92151C7.23159 6.17299 7.27863 6.42131 7.36694 6.65225C7.45524 6.88319 7.58307 7.0922 7.74311 7.26731C7.90315 7.44241 8.09224 7.58018 8.29956 7.6727C8.50688 7.76522 8.72835 7.81069 8.95127 7.80649C9.30857 7.80622 9.65725 7.68264 9.95049 7.45234C9.99887 7.41172 14.3637 3.79408 24.2152 3.79408C34.0668 3.79408 38.4553 7.39903 38.5025 7.42568C38.8021 7.67629 39.1659 7.80997 39.5389 7.80649C39.762 7.81035 39.9836 7.76447 40.1909 7.67148C40.3983 7.57848 40.5873 7.44022 40.7471 7.2646C40.907 7.08899 41.0345 6.8795 41.1224 6.64814C41.2103 6.41678 41.2569 6.16812 41.2594 5.91643C41.2595 5.53942 41.1597 5.17098 40.9728 4.8584C40.7859 4.54583 40.5205 4.30338 40.2106 4.16219Z" fill="black"/>
<path id="Vector_5" d="M31.4688 60.9285C31.3252 60.9304 31.1819 60.9121 31.0423 60.8739C20.5944 57.9544 16.6931 46.1723 16.5345 45.6824L16.5097 45.5745C16.4242 45.2343 14.3279 37.1549 17.5461 32.4228C19.0213 30.2649 21.265 29.158 24.2278 29.158C26.9824 29.158 28.9696 30.124 30.3356 32.1232C31.4609 33.7556 31.911 35.7688 32.3465 37.7083C33.2613 41.7474 33.9218 43.8685 37.724 44.0868C39.3939 44.182 40.491 43.0802 41.1133 42.1422C42.7955 39.5844 43.0881 35.4146 41.8199 31.7335C40.1906 26.9823 34.4079 18.0245 24.212 18.0245C19.8596 18.0245 15.8605 19.6023 12.6535 22.5675C9.99905 25.0237 7.89596 28.4916 6.88324 32.0559C5.0052 38.6921 7.46837 49.1236 7.492 49.2188C7.54951 49.4616 7.56335 49.7149 7.5327 49.9638C7.50205 50.2127 7.42753 50.4521 7.31353 50.668C7.19953 50.884 7.04837 51.0719 6.86895 51.2209C6.68953 51.3698 6.48549 51.4767 6.26886 51.5353C5.83121 51.6666 5.36538 51.5993 4.97121 51.3478C4.57704 51.0963 4.28588 50.6806 4.16014 50.1898C4.04762 49.7138 1.41679 38.588 3.58627 30.9186C5.94929 22.6082 13.242 14.2305 24.2154 14.2305C29.2869 14.2305 34.0782 16.1751 38.0774 19.8473C41.174 22.7034 43.7036 26.5393 45.0269 30.374C46.7091 35.2699 46.2579 40.7649 43.8803 44.3546C42.2959 46.7486 40.0398 48.0002 37.5406 47.8644C31.0299 47.4963 29.8597 42.3694 29.0067 38.6299C28.129 34.7939 27.5675 32.9445 24.2154 32.9445C22.3745 32.9445 21.0816 33.5157 20.2771 34.6987C19.1799 36.3171 19.0944 38.8469 19.216 40.6824C19.2957 41.9612 19.488 43.2279 19.7898 44.4638C20.0576 45.2254 23.5448 54.8724 31.8964 57.2068C32.1122 57.2645 32.3158 57.37 32.4952 57.5172C32.6746 57.6643 32.8263 57.8503 32.9414 58.0642C33.0566 58.278 33.1329 58.5156 33.166 58.763C33.1991 59.0105 33.1883 59.2629 33.1341 59.5056C33.0322 59.9153 32.8143 60.2761 32.5136 60.533C32.2129 60.7899 31.846 60.9288 31.4688 60.9285Z" fill="black"/>
</g>
</svg>
